<svg xmlns="http://www.w3.org/2000/svg" viewBox="0 0 512 512" role="img" aria-labelledby="title desc">
  <title id="title">AI Dojo gate logo</title>
  <desc id="desc">A neon blue dojo gate with an AI microchip centered below it.</desc>
  <defs>
    <linearGradient id="cyanFill" x1="120" y1="80" x2="390" y2="450" gradientUnits="userSpaceOnUse">
      <stop offset="0" stop-color="#63f5ff"/>
      <stop offset="0.45" stop-color="#10c8f5"/>
      <stop offset="1" stop-color="#1168ff"/>
    </linearGradient>
    <linearGradient id="edgeFill" x1="128" y1="80" x2="384" y2="440" gradientUnits="userSpaceOnUse">
      <stop offset="0" stop-color="#a7fbff"/>
      <stop offset="0.45" stop-color="#1fd8ff"/>
      <stop offset="1" stop-color="#0b66ff"/>
    </linearGradient>
    <filter id="neon" x="-30%" y="-30%" width="160%" height="160%">
      <feGaussianBlur stdDeviation="5" result="blur"/>
      <feColorMatrix in="blur" type="matrix" values="0 0 0 0 0.00 0 0 0 0 0.75 0 0 0 0 1.00 0 0 0 0.85 0" result="glow"/>
      <feMerge>
        <feMergeNode in="glow"/>
        <feMergeNode in="SourceGraphic"/>
      </feMerge>
    </filter>
    <filter id="softGlow" x="-40%" y="-40%" width="180%" height="180%">
      <feGaussianBlur stdDeviation="9" result="blur"/>
      <feColorMatrix in="blur" type="matrix" values="0 0 0 0 0.00 0 0 0 0 0.70 0 0 0 0 1.00 0 0 0 0.55 0" result="glow"/>
      <feMerge>
        <feMergeNode in="glow"/>
        <feMergeNode in="SourceGraphic"/>
      </feMerge>
    </filter>
  </defs>

  <g fill="none" stroke-linecap="round" stroke-linejoin="round" filter="url(#softGlow)">
    <path d="M83 91c95 32 251 32 346 0l-18 46c-91 21-219 21-310 0L83 91Z" fill="url(#cyanFill)" stroke="#7ef7ff" stroke-width="6"/>
    <path d="M105 149h302l-12 33H117l-12-33Z" fill="url(#cyanFill)" stroke="#18d8ff" stroke-width="5"/>
    <path d="M112 224h288" stroke="url(#edgeFill)" stroke-width="22"/>
    <path d="M88 224h48M376 224h48" stroke="url(#edgeFill)" stroke-width="24"/>
    <path d="M155 188h41M316 188h41" stroke="#6df6ff" stroke-width="9"/>
    <path d="M167 198l-16 230h70l-16-230Z" fill="url(#cyanFill)" stroke="#6df6ff" stroke-width="6"/>
    <path d="M307 198l-16 230h70l-16-230Z" fill="url(#cyanFill)" stroke="#6df6ff" stroke-width="6"/>
    <path d="M132 428h108v39H132zM272 428h108v39H272z" fill="url(#cyanFill)" stroke="#5feeff" stroke-width="6"/>
    <path d="M151 385h70M291 385h70" stroke="#57eaff" stroke-width="8"/>
    <path d="M248 184h16v38h-16z" fill="url(#cyanFill)" stroke="#42e7ff" stroke-width="5"/>
  </g>

  <g filter="url(#neon)">
    <rect x="198" y="279" width="116" height="116" rx="18" fill="#073b6b" stroke="#7ff7ff" stroke-width="7"/>
    <rect x="213" y="294" width="86" height="86" rx="10" fill="#092246" stroke="#25d8ff" stroke-width="4"/>
    <text x="256" y="358" text-anchor="middle" font-family="Arial, Helvetica, sans-serif" font-size="51" font-weight="800" fill="#8af9ff">AI</text>

    <g stroke="#7ff7ff" stroke-width="7" fill="none">
      <path d="M183 302h-35l-24-24"/>
      <path d="M183 327h-52"/>
      <path d="M183 352h-52"/>
      <path d="M183 377h-35l-24 24"/>
      <path d="M329 302h35l24-24"/>
      <path d="M329 327h52"/>
      <path d="M329 352h52"/>
      <path d="M329 377h35l24 24"/>
      <path d="M218 264v-34"/>
      <path d="M244 264v-45"/>
      <path d="M268 264v-45"/>
      <path d="M294 264v-34"/>
      <path d="M218 410v34"/>
      <path d="M244 410v45"/>
      <path d="M268 410v45"/>
      <path d="M294 410v34"/>
    </g>

    <g fill="#7ff7ff">
      <circle cx="119" cy="273" r="8"/>
      <circle cx="131" cy="327" r="8"/>
      <circle cx="131" cy="352" r="8"/>
      <circle cx="119" cy="406" r="8"/>
      <circle cx="393" cy="273" r="8"/>
      <circle cx="381" cy="327" r="8"/>
      <circle cx="381" cy="352" r="8"/>
      <circle cx="393" cy="406" r="8"/>
      <circle cx="218" cy="224" r="8"/>
      <circle cx="244" cy="214" r="8"/>
      <circle cx="268" cy="214" r="8"/>
      <circle cx="294" cy="224" r="8"/>
      <circle cx="218" cy="450" r="8"/>
      <circle cx="244" cy="460" r="8"/>
      <circle cx="268" cy="460" r="8"/>
      <circle cx="294" cy="450" r="8"/>
    </g>
  </g>
</svg>
